<svg class="icon" xmlns="http://www.w3.org/2000/svg">
    <g id="category" viewBox="0 0 20 20" fill="none" xmlns="http://www.w3.org/2000/svg">
        <path d="M14.0756 0H17.4616C18.8639 0 20.0001 1.14585 20.0001 2.55996V5.97452C20.0001 7.38864 18.8639 8.53449 17.4616 8.53449H14.0756C12.6734 8.53449 11.5371 7.38864 11.5371 5.97452V2.55996C11.5371 1.14585 12.6734 0 14.0756 0" fill="currentColor"/>
        <path fill-rule="evenodd" clip-rule="evenodd" d="M2.53852 0H5.92449C7.32676 0 8.46301 1.14585 8.46301 2.55996V5.97452C8.46301 7.38864 7.32676 8.53449 5.92449 8.53449H2.53852C1.13626 8.53449 0 7.38864 0 5.97452V2.55996C0 1.14585 1.13626 0 2.53852 0ZM2.53852 11.4655H5.92449C7.32676 11.4655 8.46301 12.6114 8.46301 14.0255V17.44C8.46301 18.8532 7.32676 20 5.92449 20H2.53852C1.13626 20 0 18.8532 0 17.44V14.0255C0 12.6114 1.13626 11.4655 2.53852 11.4655ZM17.4615 11.4655H14.0755C12.6732 11.4655 11.537 12.6114 11.537 14.0255V17.44C11.537 18.8532 12.6732 20 14.0755 20H17.4615C18.8637 20 20 18.8532 20 17.44V14.0255C20 12.6114 18.8637 11.4655 17.4615 11.4655Z" fill="currentColor"/>
    </g>

    <g id="activity" viewBox="0 0 20 20" fill="none" xmlns="http://www.w3.org/2000/svg">
        <path fill-rule="evenodd" clip-rule="evenodd" d="M13.2428 2.73756C13.2428 4.95855 15.0459 6.75902 17.2702 6.75902C17.5151 6.75782 17.7594 6.73431 18 6.68878V14.6615C18 18.0156 16.0215 20 12.6624 20H5.34636C1.97851 20 0 18.0156 0 14.6615V7.3561C0 4.00195 1.97851 2 5.34636 2H13.3131C13.2659 2.243 13.2423 2.49001 13.2428 2.73756ZM11.15 12.8966L14.0078 9.20878V9.19122C14.2525 8.86247 14.1901 8.39889 13.8671 8.14634C13.7108 8.02568 13.5122 7.97345 13.3167 8.00159C13.1211 8.02972 12.9453 8.1358 12.8295 8.29561L10.4201 11.3951L7.6766 9.23512C7.51997 9.11309 7.32071 9.05922 7.12381 9.08565C6.92691 9.11208 6.74898 9.2166 6.63019 9.37561L3.67562 13.1863C3.57177 13.3158 3.51586 13.4771 3.51734 13.6429C3.5002 13.9781 3.71187 14.2826 4.03238 14.3838C4.35288 14.485 4.70138 14.3573 4.88031 14.0732L7.35125 10.8771L10.0948 13.0283C10.2508 13.1541 10.4514 13.2111 10.6504 13.1863C10.8494 13.1615 11.0297 13.0569 11.15 12.8966Z" fill="currentColor"/>
        <circle cx="17.5" cy="2.5" r="2.5" fill="currentColor"/>
    </g>

    <g id="wallet" viewBox="0 0 20 18" fill="none" xmlns="http://www.w3.org/2000/svg">
        <path fill-rule="evenodd" clip-rule="evenodd" d="M19.9964 5.37513H15.7618C13.7911 5.37859 12.1947 6.93514 12.1911 8.85657C12.1884 10.7823 13.7867 12.3458 15.7618 12.3484H20V12.6543C20 16.0136 17.9636 18 14.5173 18H5.48356C2.03644 18 0 16.0136 0 12.6543V5.33786C0 1.97862 2.03644 0 5.48356 0H14.5138C17.96 0 19.9964 1.97862 19.9964 5.33786V5.37513ZM4.73956 5.36733H10.3796H10.3831H10.3902C10.8124 5.36559 11.1538 5.03019 11.152 4.61765C11.1502 4.20598 10.8053 3.87318 10.3831 3.87491H4.73956C4.32 3.87664 3.97956 4.20858 3.97778 4.61852C3.976 5.03019 4.31733 5.36559 4.73956 5.36733Z" fill="currentColor"/>
        <path d="M14.0374 9.29669C14.2465 10.2479 15.0805 10.9171 16.0326 10.8997H19.2825C19.6787 10.8997 20 10.5716 20 10.1661V7.63452C19.9991 7.22985 19.6787 6.90089 19.2825 6.90002H15.9561C14.8731 6.90351 13.9983 7.80247 14 8.9103C14 9.03997 14.0128 9.16964 14.0374 9.29669" fill="currentColor"/>
        <circle cx="16" cy="8.90002" r="1" fill="currentColor"/>
    </g>

    <g id="product" viewBox="0 0 18 20" fill="none" xmlns="http://www.w3.org/2000/svg">
        <path d="M16.6514 5.02299L9.0902 9.30241C8.96516 9.37292 8.81188 9.37292 8.68784 9.30241L1.13373 5.01206C0.867501 4.86111 0.863468 4.48371 1.12667 4.32779L8.31069 0.0573082C8.43372 -0.0161838 8.587 -0.0191632 8.71305 0.0493631L16.6443 4.33176C16.9206 4.47875 16.9247 4.86806 16.6514 5.02299Z" fill="currentColor"/>
        <path d="M7.34537 19.9439L0.197651 15.7717C0.0746235 15.7002 0 15.5701 0 15.4301L0.0040337 7.21985C0.0040337 6.91496 0.338831 6.72328 0.608081 6.87523L7.7679 10.9203C7.89395 10.9908 7.97059 11.1229 7.97059 11.2659L7.95345 19.6033C7.95345 19.9101 7.61361 20.1008 7.34537 19.9439Z" fill="currentColor"/>
        <path d="M10.0451 19.8605L17.1929 15.6883C17.3159 15.6168 17.3905 15.4867 17.3905 15.3467L17.3865 7.13642C17.3865 6.83152 17.0517 6.63985 16.7824 6.7918L9.62262 10.8368C9.49656 10.9074 9.41992 11.0394 9.41992 11.1824L9.43706 19.5198C9.43606 19.8267 9.7759 20.0164 10.0451 19.8605Z" fill="currentColor"/>
    </g>

    <g id="gift" viewBox="0 0 18 18" fill="none" xmlns="http://www.w3.org/2000/svg">
        <path fill-rule="evenodd" clip-rule="evenodd" d="M15.4438 18H9.8188V12.272H16.3638V17.091C16.3638 17.593 15.9518 18 15.4438 18ZM1.6371 17.0905V12.2725H8.1821V18.0005H2.5571C2.0491 18.0005 1.6371 17.5925 1.6371 17.0905ZM17.1 4.09082H15.258C15.437 3.71782 15.546 3.30482 15.546 2.86282C15.546 1.28482 14.261 -0.000183105 12.682 -0.000183105C10.801 -0.000183105 9.661 1.31982 9 2.56882C8.339 1.31982 7.2 -0.000183105 5.319 -0.000183105C3.74 -0.000183105 2.454 1.28482 2.454 2.86282C2.454 3.30482 2.564 3.71782 2.743 4.09082H0.901C0.404 4.09082 0 4.67682 0 5.40082V9.32682C0 10.0498 0.404 10.6368 0.901 10.6368H1.637H8.182V4.09082H9.819V10.6368H16.364H17.1C17.597 10.6368 18 10.0498 18 9.32682V5.40082C18 4.67682 17.597 4.09082 17.1 4.09082ZM12.682 4.09082H10.101C10.487 3.07482 11.281 1.63682 12.682 1.63682C13.359 1.63682 13.91 2.18682 13.91 2.86282C13.91 3.53982 13.359 4.09082 12.682 4.09082ZM5.319 4.09082C4.642 4.09082 4.091 3.53982 4.091 2.86282C4.091 2.18682 4.642 1.63682 5.319 1.63682C6.72 1.63682 7.514 3.07482 7.9 4.09082H5.319Z" fill="currentColor"/>
    </g>
</svg>


 

