<svg width="362" height="261" viewBox="0 0 362 261" fill="none" xmlns="http://www.w3.org/2000/svg">
<path opacity="0.12" d="M133 193.394C133 182.708 130.698 173.039 125.583 166.932C121.746 161.843 120.723 159.299 114.84 155.482C108.958 151.411 108.19 150.393 101.029 147.34C97.4481 145.559 94.8904 144.541 93.6115 144.032L85.6827 140.979L78.5212 138.18H78.2654V108.156C84.6596 110.446 89.0077 115.534 91.5654 123.422L130.442 101.794C120.212 79.6578 102.819 67.19 78.2654 64.3911V42H60.3615V63.8822C44.5038 65.1544 31.4596 70.7522 21.2288 80.4211C10.9981 89.8355 5.88269 102.558 5.88269 118.588C5.88269 134.872 10.9981 147.086 21.9962 155.991C32.9942 164.388 41.9462 168.968 58.0596 174.82L60.3615 175.583V205.862C50.3865 203.318 43.4808 196.448 39.6442 185.507L0 207.643C8.44038 232.07 30.4365 247.082 60.3615 249.118V271H78.2654V248.863C111.771 245.047 133 225.2 133 193.394ZM50.3865 118.842C50.3865 112.736 53.7115 108.919 60.3615 107.138V130.292C53.7115 126.984 50.3865 123.168 50.3865 118.842ZM78.2654 182.708C85.1712 185.761 88.4962 189.578 88.4962 194.158C88.4962 200.01 85.1712 203.827 78.2654 205.608V182.708Z" fill="white"/>
<g opacity="0.8">
<path d="M361.001 21.3486V20.7406C351.926 28.6603 345.238 46.4606 343.87 66.3891C343.505 71.7855 341.483 75.2665 338.017 76.4674C335.464 77.349 332.256 76.9842 328.73 75.3881C325.218 73.792 321.722 71.147 318.621 67.7268C317.435 66.4195 315.93 64.9298 314.319 63.3489C306.855 56.0068 296.656 45.9438 301.337 37.0208C303.906 32.1413 308.756 31.2292 313.878 30.2716C319.077 29.2987 324.458 28.2954 327.042 22.7471C327.818 21.075 328.365 19.1444 328.684 16.9555H327.757C327.453 19.0076 326.936 20.8014 326.206 22.3671C323.82 27.4898 318.895 28.4171 313.696 29.3899C308.573 30.3476 303.283 31.3356 300.517 36.6104C296.868 43.5724 301.474 50.9601 307.22 57.3749C311.279 62.4673 316.356 67.134 319.32 70.5694C329.505 82.3958 344.888 86.044 346.804 70.3414C348.704 54.882 353.994 40.7907 360.986 31.8981L361.001 21.3486Z" fill="#FFEEA7"/>
<path d="M195.6 48.7261C195.341 50.5046 194.794 52.3592 194.216 54.3201C193.228 57.6795 192.225 61.1149 192.559 64.4439C192.271 67.4081 192.499 70.3267 193.973 73.0021C195.736 76.1943 200.008 77.2432 203.155 75.9207C213.02 71.7708 213.537 56.9195 224.786 54.8673H224.801C229.498 53.5904 234.864 56.2354 238.375 59.1388C244.319 64.0791 249.214 73.0781 250.217 81.2106C250.202 81.5755 250.202 81.9555 250.186 82.3203C250.095 85.5733 250.004 89.176 250.247 92.7482C250.278 98.8286 250.87 105.152 253.865 109.986C258.577 117.617 270.677 115.489 268.534 108.314C268.792 107.98 269.02 107.615 269.172 107.235C269.796 105.745 269.932 103.206 266.968 99.6798C263.761 95.8492 262.317 92.277 262.393 88.4463C262.469 85.0717 263.73 81.4235 266.467 76.6199C268.899 72.3637 272.486 68.2746 276.302 63.9575C282.169 57.2843 288.25 50.3678 289.967 42.5545C291.016 37.7662 290.864 32.2787 289.496 26.2287C288.827 23.2645 287.87 20.1483 286.623 16.9257H285.65C286.942 20.2243 287.93 23.4013 288.614 26.4263C289.952 32.3395 290.104 37.7054 289.086 42.3569C287.414 49.9422 281.424 56.7674 275.618 63.3647C271.787 67.7274 268.154 71.8468 265.676 76.1791C262.849 81.1194 261.557 84.9045 261.481 88.4311C261.39 92.505 262.91 96.2596 266.269 100.273C268.382 102.796 269.081 105.076 268.321 106.885C267.637 108.496 265.828 109.576 263.457 109.758C260.766 109.971 256.829 108.892 254.534 105.198C250.627 98.8894 250.886 89.708 251.083 82.3355C251.098 81.5755 251.129 80.8306 251.144 80.101C251.342 71.2844 246.097 60.1421 238.953 54.2137C235.365 51.2343 229.817 48.5285 224.968 49.851H224.953C220.104 51.2191 216.835 56.2506 213.689 61.1301C211.409 64.6416 209.265 67.9554 206.62 69.8707C204.097 71.71 201.467 72.4397 199.233 71.938C197.348 71.5124 195.812 70.2659 194.672 68.2138C192.316 63.9727 193.73 59.1844 195.083 54.5633C195.676 52.572 196.223 50.6871 196.497 48.8477C197.272 43.5578 196.679 37.3254 194.84 31.3058C193.091 25.6206 190.31 20.5891 186.92 16.9409H185.658C189.215 20.5283 192.149 25.6966 193.958 31.5794C195.752 37.3862 196.344 43.6338 195.6 48.7261Z" fill="#FFEEA7"/>
<path d="M347.426 87.1732C343.094 95.4881 339.005 103.362 334.126 106.053C331.116 107.71 328.532 108.029 326.221 107.041C320.004 104.335 316.979 92.3415 314.304 81.7616C312.297 73.7811 310.549 66.8951 307.722 64.1437C304.332 60.8451 300.714 59.553 296.974 60.2978C286.273 62.4108 277.7 80.3479 275.328 85.8051C271.558 94.4545 272.182 100.641 277.532 107.923C278.201 108.835 278.992 109.792 279.828 110.811C283.491 115.28 288.036 120.859 285.938 126.62C284.297 131.134 285.315 135.801 288.887 140.103C291.882 143.69 296.579 146.867 301.778 148.798C303.663 149.497 305.624 150.105 307.524 150.698C314.577 152.887 321.235 154.97 325.476 161.567C326.844 163.695 328.197 166.234 329.398 169H330.386C329.125 166.036 327.696 163.33 326.236 161.065C321.813 154.194 314.684 151.975 307.782 149.816C305.897 149.224 303.952 148.631 302.082 147.932C297.02 146.062 292.46 142.991 289.572 139.51C287.231 136.698 284.844 132.229 286.775 126.924C289.055 120.676 284.327 114.885 280.512 110.233C279.691 109.23 278.916 108.272 278.247 107.375C273.124 100.413 272.531 94.4697 276.149 86.1699C277.502 83.0689 280.36 77.0493 284.312 71.5466C288.675 65.4966 292.992 62.0156 297.126 61.1947C300.562 60.5259 303.906 61.7267 307.068 64.7973C309.713 67.3663 311.507 74.4804 313.407 81.9897C316.128 92.7824 319.213 105.004 325.841 107.877C328.395 108.987 331.313 108.637 334.551 106.858C339.674 104.031 343.824 96.0506 348.217 87.5988C352.139 80.0591 356.167 72.337 360.986 68.1416V66.9559C355.772 71.1361 351.546 79.2383 347.426 87.1732Z" fill="#FFEEA7"/>
<path d="M352.792 104.377C350.345 109.317 348.019 113.984 344.949 116.218C340.145 119.715 334.642 121.083 329.444 120.064C324.138 119.031 319.426 115.58 316.204 110.366C314.911 108.268 313.665 104.179 312.342 99.8318C309.697 91.1368 306.703 81.2866 301.504 79.9793C299.802 79.5537 298.266 79.7513 296.944 80.5721C293.402 82.7611 292.049 88.9479 290.97 93.9034C290.499 96.0467 290.103 97.9013 289.602 99.0413C286.911 105.213 287.367 109.636 291.183 114.835C291.76 115.61 292.399 116.37 293.083 117.191C294.861 119.304 296.716 121.478 297.248 123.986C297.506 125.217 297.278 126.388 297.035 127.634C296.746 129.124 296.442 130.675 297.065 132.255C299.498 138.549 308.269 140.859 315.322 142.714C317.283 143.231 319.137 143.717 320.627 144.234C330.325 147.608 343.596 152.214 349.934 162.065C351.166 163.98 352.367 166.351 353.37 168.935H354.343C353.294 166.154 352.017 163.6 350.695 161.563C344.189 151.454 330.736 146.772 320.916 143.367C319.381 142.835 317.511 142.349 315.535 141.817C308.679 140.008 300.151 137.773 297.886 131.906C297.369 130.553 297.628 129.215 297.902 127.786C298.145 126.51 298.403 125.172 298.114 123.773C297.537 121.037 295.621 118.772 293.767 116.583C293.098 115.793 292.46 115.033 291.912 114.288C288.31 109.393 287.899 105.228 290.438 99.391C290.97 98.1749 291.38 96.2748 291.867 94.0858C292.916 89.2823 294.223 83.3235 297.43 81.3322C298.555 80.6329 299.802 80.4809 301.291 80.8457C306.004 82.0314 309.044 92.0337 311.476 100.09C312.874 104.681 314.075 108.648 315.428 110.837C318.803 116.264 323.713 119.867 329.276 120.946C334.734 122.01 340.479 120.596 345.496 116.948C348.749 114.577 351.12 109.819 353.613 104.772C355.817 100.318 358.082 95.7731 361.016 92.8545V91.5776C357.657 94.5722 355.194 99.5278 352.792 104.377Z" fill="#FFEEA7"/>
<path d="M354.419 120.4L353.963 120.78C348.172 125.507 341.62 130.858 333.746 128.38C331.8 127.772 329.9 126.754 328.076 125.781C324.048 123.638 319.883 121.418 314.851 123.273C311.796 124.398 310.99 125.994 310.838 127.149C310.61 129.003 311.917 131.01 314.517 132.773C318.454 135.449 323.166 136.65 327.726 137.805C329.93 138.367 332.211 138.945 334.324 139.675C342.836 142.639 354.1 146.545 361.016 154.131V152.808C353.918 145.542 342.958 141.727 334.628 138.823C332.469 138.078 330.174 137.486 327.954 136.923C323.47 135.783 318.849 134.597 315.033 132.013C312.769 130.463 311.568 128.73 311.75 127.255C311.902 125.978 313.088 124.899 315.17 124.124C319.822 122.406 323.622 124.443 327.65 126.587C329.52 127.575 331.451 128.608 333.472 129.247H333.487C341.833 131.861 348.582 126.343 354.556 121.479L355.012 121.099C355.164 120.977 355.377 120.795 355.635 120.582C357.596 118.956 359.39 117.542 361.016 116.356V115.216C358.934 116.706 356.851 118.378 355.042 119.883C354.784 120.111 354.571 120.278 354.419 120.4Z" fill="#FFEEA7"/>
<path d="M211.458 80.1906C209.773 84.388 209.193 88.1975 209.806 90.9163C210.679 94.7866 213.657 96.917 216.546 98.965C217.576 99.7095 218.661 100.484 219.608 101.318C222.082 103.501 223.369 106.118 224.737 108.893C226.164 111.784 227.627 114.77 230.541 117.193L230.607 117.234C232.172 118.183 233.628 118.825 234.933 119.16C240.274 121.488 246.431 121.589 248.481 116.301C251.057 109.637 241.898 102.168 239.53 96.421C236.306 88.6204 240.778 80.9136 238.504 72.9142C236.879 67.1911 230.579 63.4816 228.002 63.874C227.692 63.9185 227.372 63.9957 227.064 64.0832C226.871 64.0909 226.688 64.1088 226.496 64.1379C223.855 64.5328 221.01 66.3127 218.255 69.2938C215.542 72.2087 213.074 76.1789 211.458 80.1906ZM225.56 108.473C224.215 105.74 222.823 102.923 220.215 100.616C219.234 99.7515 218.138 98.9666 217.076 98.2126C214.208 96.1638 211.496 94.2164 210.701 90.7088C209.528 85.5272 213.292 75.9873 218.914 69.9024C221.524 67.0776 224.19 65.4017 226.618 65.0367C229.216 64.6435 231.244 66.9729 232.656 71.9192C233.63 75.3444 234.062 78.931 234.469 82.411C235.029 87.0467 235.594 91.8327 237.451 96.3418C238.129 97.9824 239.053 99.5809 239.952 101.116C242.271 105.08 244.453 108.834 242.677 113.422C242.12 114.853 241.445 116.009 240.692 116.824C238.526 119.169 235.38 119.057 231.083 116.473C228.356 114.16 226.929 111.269 225.56 108.473Z" fill="#FFEEA7"/>
<path d="M319.837 41.7053C319.594 42.1005 319.411 42.5413 319.274 43.0126C318.423 45.992 319.305 49.5034 321.676 52.6348C324.443 56.283 328.638 58.6544 332.362 58.6544C332.758 58.6544 333.168 58.624 333.548 58.5784C335.19 58.3504 336.497 57.4991 337.455 56.0398C339.355 53.1212 339.4 48.1505 338.488 44.9431C337.956 43.0886 336.391 41.4013 334.08 40.2004C331.982 39.1059 329.398 38.4827 326.981 38.4827C323.652 38.4979 321.038 39.6683 319.837 41.7053ZM337.607 45.1863C338.352 47.7553 338.549 52.6652 336.679 55.5382C335.874 56.7694 334.779 57.4839 333.411 57.6663C333.062 57.7119 332.712 57.7423 332.347 57.7423C328.897 57.7423 324.975 55.523 322.391 52.0875C320.202 49.1842 319.381 45.9616 320.141 43.2558C320.247 42.8606 320.414 42.4957 320.612 42.1613C321.661 40.398 323.971 39.3947 326.981 39.3947C331.298 39.4099 336.588 41.6141 337.607 45.1863Z" fill="#FFEEA7"/>
<path d="M268.918 40.4081C269.05 39.9634 269.112 39.4904 269.123 38.9998C269.174 35.9016 267.413 32.738 264.312 30.3271C260.696 27.5192 256.029 26.3145 252.432 27.2784C252.05 27.3807 251.662 27.5163 251.307 27.6587C249.78 28.3039 248.737 29.4644 248.19 31.1219C247.11 34.4328 248.353 39.246 250.064 42.108C251.058 43.7616 253.007 44.9862 255.549 45.5482C257.859 46.0624 260.516 45.9956 262.851 45.37C266.062 44.4937 268.285 42.6864 268.918 40.4081ZM250.852 41.6449C249.468 39.3563 248.006 34.6648 249.069 31.4058C249.528 30.0079 250.4 29.0346 251.675 28.5043C252.001 28.3697 252.33 28.2499 252.683 28.1555C256.016 27.2624 260.379 28.391 263.764 31.0406C266.63 33.2785 268.257 36.1788 268.223 38.9891C268.222 39.3984 268.155 39.7941 268.051 40.1683C267.494 42.143 265.522 43.7101 262.615 44.4891C258.441 45.5917 252.761 44.8318 250.852 41.6449Z" fill="#FFEEA7"/>
<path d="M255.484 64.0918C255.857 64.7371 256.613 65.4763 258.073 65.3219C259.439 65.1787 261.456 64.2007 262.388 63.2322C263.734 61.8382 263.417 59.0528 262.336 57.1813C261.566 55.8475 260.484 55.0666 259.366 55.067C259.149 55.0634 258.922 55.0936 258.698 55.1516C257.519 55.445 256.426 56.6068 255.694 58.32C254.949 60.0842 254.596 62.5537 255.484 64.0918ZM258.88 55.8641C259.044 55.8264 259.204 55.8056 259.36 55.8019C260.212 55.8119 261.051 56.446 261.691 57.5539C262.883 59.619 262.699 61.8336 261.851 62.7247C261.055 63.557 259.178 64.4543 257.99 64.5813C257.138 64.6713 256.514 64.386 256.129 63.7192C255.477 62.5898 255.585 60.4911 256.384 58.5958C257.014 57.1279 257.943 56.104 258.88 55.8641Z" fill="#FFEEA7"/>
<path d="M226.99 13.0258C231.034 12.4938 235.26 6.67183 236.886 4.19406C237.646 3.02359 238.346 1.85312 238.969 0.682641L237.935 0.682641C237.388 1.68591 236.78 2.70437 236.126 3.69244C232.873 8.63276 229.423 11.7946 226.869 12.129C224.817 12.4026 223.357 10.7761 222.536 7.29507C222.08 5.37974 222.308 3.03879 222.795 0.68264L221.868 0.68264C221.381 3.08439 221.184 5.48616 221.655 7.50789C222.293 10.2593 223.753 13.4515 226.99 13.0258Z" fill="#FFEEA7"/>
<path d="M216.033 48.1539C218.526 48.2147 221.004 47.1659 223.649 44.9617C227.783 41.4959 230.17 36.4492 232.48 31.5849C232.617 31.2808 232.754 30.992 232.906 30.7032C237.953 20.0777 242.726 11.4436 249.627 3.87347C249.931 3.53905 250.265 3.15902 250.645 2.74859C251.193 2.14055 251.816 1.44131 252.5 0.696457L251.269 0.696457C250.797 1.21329 250.372 1.69972 249.977 2.14055C249.612 2.55098 249.262 2.93101 248.973 3.26543C241.996 10.9267 237.193 19.6217 232.1 30.3232C231.963 30.612 231.827 30.916 231.675 31.22C229.41 36.0084 227.069 40.9487 223.086 44.2929C220.624 46.345 218.328 47.3331 216.078 47.2723C213.129 47.2115 210.636 46.4362 208.873 45.0377C206.958 43.5176 206 41.3743 206.061 38.6533C206.152 33.8346 208.296 29.4719 210.378 25.246C212.445 21.0354 214.574 16.7031 214.802 11.7932C214.984 7.6433 214.437 3.81266 213.251 0.696453L212.278 0.696453C213.494 3.73665 214.072 7.5673 213.889 11.7476C213.677 16.4599 211.579 20.7162 209.557 24.8356C207.444 29.1375 205.255 33.5914 205.149 38.6229C205.012 44.3385 209.192 48.0019 216.033 48.1539Z" fill="#FFEEA7"/>
</g>
</svg>
