<svg width="308" height="219" viewBox="0 0 308 219" fill="none" xmlns="http://www.w3.org/2000/svg">
<path opacity="0.12" d="M13.494 218.378V161.171H0.0390625V144.032H13.494V127.356H0.0390625V110.217H13.494V53.0099H49.9151L68.0097 110.217H89.12V53.0099H114.87V110.217H128.093V127.356H114.87V144.032H128.093V161.171H114.87V218.378H78.2169L59.6584 161.171H39.244V218.378H13.494ZM38.3161 110.217H44.8115L38.0841 87.9826H37.1561L38.3161 110.217ZM39.244 144.032H54.5548L49.4512 127.356H38.78L39.244 144.032ZM78.9129 144.032H89.584L89.12 127.356H73.5773L78.9129 144.032ZM89.816 182.247H90.9759L90.048 161.171H83.7845L89.816 182.247Z" fill="#006156"/>
<g opacity="0.8">
<path d="M307.877 17.6876V17.172C300.181 23.8882 294.509 38.9836 293.349 55.8837C293.04 60.4601 291.325 63.4121 288.386 64.4305C286.22 65.1782 283.5 64.8688 280.51 63.5152C277.532 62.1617 274.567 59.9186 271.937 57.0181C270.931 55.9095 269.655 54.6462 268.289 53.3055C261.959 47.0792 253.309 38.5453 257.28 30.9783C259.458 26.8402 263.571 26.0668 267.915 25.2546C272.324 24.4296 276.887 23.5788 279.079 18.8736C279.736 17.4556 280.2 15.8184 280.471 13.9621H279.684C279.427 15.7024 278.988 17.2235 278.37 18.5513C276.346 22.8956 272.169 23.6819 267.76 24.507C263.416 25.3191 258.93 26.157 256.584 30.6302C253.49 36.5343 257.396 42.7993 262.269 48.2394C265.711 52.5578 270.016 56.5154 272.53 59.4288C281.167 69.458 294.213 72.5518 295.837 59.2354C297.448 46.1252 301.934 34.1752 307.864 26.634L307.877 17.6876Z" fill="#006156"/>
<path d="M167.61 40.9053C167.391 42.4135 166.927 43.9863 166.437 45.6492C165.599 48.4981 164.749 51.4115 165.032 54.2346C164.787 56.7484 164.981 59.2235 166.231 61.4923C167.726 64.1994 171.349 65.0889 174.017 63.9674C182.384 60.4481 182.822 47.8536 192.361 46.1133H192.374C196.357 45.0304 200.908 47.2735 203.886 49.7357C208.926 53.9252 213.077 61.5567 213.928 68.4534C213.915 68.7628 213.915 69.0851 213.902 69.3945C213.825 72.1532 213.747 75.2083 213.954 78.2377C213.979 83.3941 214.482 88.7568 217.022 92.8562C221.018 99.3275 231.279 97.5227 229.462 91.4381C229.681 91.1545 229.874 90.8452 230.003 90.5229C230.532 89.2596 230.648 87.1068 228.134 84.116C225.414 80.8675 224.189 77.8381 224.254 74.5896C224.318 71.7278 225.388 68.6339 227.708 64.5603C229.771 60.9509 232.813 57.4832 236.049 53.8221C241.025 48.1629 246.181 42.2975 247.638 35.6715C248.527 31.6109 248.399 26.9572 247.238 21.8266C246.671 19.3128 245.859 16.6702 244.802 13.9373H243.977C245.073 16.7346 245.911 19.4288 246.491 21.9942C247.625 27.0088 247.754 31.5593 246.89 35.504C245.472 41.9366 240.393 47.7247 235.469 53.3194C232.22 57.0191 229.139 60.5126 227.038 64.1865C224.64 68.3761 223.545 71.586 223.48 74.5767C223.403 78.0315 224.692 81.2156 227.541 84.6188C229.333 86.7587 229.926 88.6924 229.281 90.2264C228.701 91.5928 227.167 92.5081 225.156 92.6628C222.874 92.8433 219.535 91.928 217.589 88.7955C214.276 83.4457 214.495 75.6595 214.663 69.4074C214.676 68.7628 214.701 68.1312 214.714 67.5124C214.882 60.0356 210.434 50.5865 204.376 45.559C201.333 43.0323 196.628 40.7377 192.516 41.8592H192.503C188.391 43.0194 185.619 47.2864 182.951 51.4244C181.017 54.4022 179.199 57.2125 176.956 58.8367C174.817 60.3965 172.586 61.0153 170.691 60.5899C169.093 60.229 167.791 59.1719 166.824 57.4316C164.826 53.835 166.025 49.7743 167.172 45.8555C167.675 44.1667 168.139 42.5682 168.371 41.0084C169.028 36.5223 168.526 31.237 166.966 26.1322C165.483 21.3109 163.124 17.044 160.25 13.9501H159.18C162.196 16.9924 164.684 21.3754 166.218 26.3642C167.739 31.2886 168.242 36.5868 167.61 40.9053Z" fill="#006156"/>
<path d="M296.365 73.5101C292.691 80.5615 289.224 87.2391 285.086 89.5208C282.533 90.9259 280.342 91.1966 278.382 90.3587C273.11 88.0641 270.545 77.8931 268.276 68.9209C266.574 62.1531 265.092 56.3135 262.694 53.9802C259.819 51.1829 256.751 50.0871 253.58 50.7188C244.505 52.5107 237.234 67.7221 235.223 72.35C232.026 79.6849 232.555 84.9316 237.092 91.1064C237.66 91.8799 238.33 92.692 239.039 93.5557C242.146 97.3457 246 102.077 244.221 106.962C242.829 110.791 243.693 114.749 246.722 118.397C249.262 121.439 253.245 124.133 257.654 125.77C259.252 126.363 260.915 126.879 262.526 127.382C268.508 129.238 274.154 131.004 277.751 136.599C278.911 138.404 280.058 140.556 281.077 142.903H281.915C280.845 140.389 279.633 138.094 278.395 136.173C274.644 130.347 268.598 128.465 262.746 126.634C261.147 126.131 259.497 125.629 257.911 125.036C253.619 123.45 249.751 120.846 247.302 117.894C245.317 115.509 243.293 111.719 244.93 107.22C246.864 101.922 242.855 97.0105 239.619 93.0658C238.923 92.215 238.265 91.4029 237.698 90.6423C233.354 84.7382 232.851 79.6978 235.919 72.6593C237.067 70.0296 239.49 64.9247 242.842 60.2582C246.542 55.1275 250.203 52.1755 253.709 51.4794C256.622 50.9122 259.458 51.9306 262.14 54.5345C264.383 56.7131 265.904 62.7461 267.515 69.1143C269.823 78.2669 272.44 88.6313 278.06 91.0677C280.226 92.0088 282.701 91.7123 285.447 90.204C289.791 87.8063 293.31 81.0385 297.036 73.8711C300.362 67.4771 303.778 60.9285 307.864 57.3706V56.3651C303.443 59.9101 299.859 66.781 296.365 73.5101Z" fill="#006156"/>
<path d="M300.916 88.0996C298.841 92.2892 296.869 96.2467 294.265 98.1417C290.191 101.107 285.525 102.267 281.116 101.403C276.617 100.527 272.621 97.6003 269.888 93.1787C268.792 91.3997 267.735 87.932 266.613 84.2452C264.37 76.8715 261.831 68.5181 257.422 67.4095C255.978 67.0485 254.676 67.2161 253.555 67.9122C250.551 69.7685 249.404 75.0152 248.489 79.2177C248.089 81.0353 247.754 82.608 247.328 83.5748C245.047 88.8086 245.433 92.5599 248.669 96.9686C249.159 97.6261 249.7 98.2706 250.28 98.9667C251.789 100.759 253.361 102.602 253.813 104.729C254.032 105.773 253.838 106.766 253.632 107.823C253.387 109.086 253.129 110.401 253.658 111.742C255.72 117.079 263.159 119.038 269.14 120.611C270.803 121.049 272.376 121.462 273.639 121.9C281.863 124.762 293.117 128.668 298.493 137.021C299.537 138.645 300.555 140.656 301.406 142.848H302.231C301.342 140.489 300.259 138.323 299.137 136.596C293.62 128.023 282.212 124.053 273.884 121.165C272.582 120.714 270.996 120.301 269.32 119.85C263.507 118.316 256.275 116.421 254.354 111.445C253.916 110.298 254.135 109.164 254.367 107.952C254.573 106.869 254.792 105.735 254.547 104.549C254.057 102.228 252.433 100.307 250.861 98.4511C250.293 97.7808 249.752 97.1362 249.288 96.5045C246.233 92.3536 245.885 88.8215 248.037 83.8713C248.489 82.8401 248.837 81.2287 249.249 79.3724C250.139 75.2988 251.247 70.2455 253.967 68.5568C254.921 67.9638 255.978 67.8349 257.242 68.1443C261.238 69.1498 263.816 77.6321 265.879 84.4643C267.065 88.3574 268.083 91.722 269.23 93.5783C272.092 98.1804 276.256 101.236 280.974 102.151C285.602 103.053 290.475 101.854 294.729 98.7605C297.487 96.7495 299.498 92.7146 301.613 88.4348C303.482 84.6577 305.402 80.8033 307.89 78.3282V77.2453C305.042 79.7849 302.953 83.9874 300.916 88.0996Z" fill="#006156"/>
<path d="M302.296 101.687L301.909 102.009C296.997 106.018 291.441 110.556 284.764 108.455C283.114 107.939 281.502 107.075 279.955 106.25C276.539 104.433 273.007 102.551 268.74 104.123C266.149 105.077 265.466 106.431 265.337 107.411C265.144 108.983 266.252 110.685 268.457 112.18C271.795 114.449 275.792 115.467 279.659 116.447C281.528 116.924 283.462 117.414 285.254 118.033C292.473 120.547 302.025 123.859 307.89 130.292V129.171C301.87 123.009 292.576 119.773 285.512 117.311C283.681 116.679 281.734 116.176 279.852 115.699C276.049 114.733 272.131 113.727 268.895 111.536C266.974 110.221 265.956 108.751 266.111 107.501C266.239 106.418 267.245 105.503 269.011 104.845C272.956 103.389 276.178 105.116 279.595 106.934C281.18 107.771 282.817 108.648 284.532 109.189H284.545C291.622 111.407 297.345 106.727 302.412 102.602L302.798 102.28C302.927 102.177 303.108 102.022 303.327 101.842C304.99 100.462 306.511 99.2634 307.89 98.2579V97.2911C306.124 98.5544 304.358 99.9724 302.824 101.249C302.605 101.442 302.425 101.584 302.296 101.687Z" fill="#006156"/>
<path d="M181.058 67.5887C179.63 71.1482 179.137 74.3788 179.657 76.6845C180.398 79.9666 182.923 81.7733 185.373 83.5101C186.246 84.1415 187.166 84.7984 187.97 85.5056C190.068 87.3565 191.159 89.5758 192.32 91.9291C193.53 94.3808 194.77 96.9134 197.242 98.9686L197.298 99.0028C198.625 99.8079 199.86 100.352 200.966 100.637C205.495 102.61 210.717 102.696 212.455 98.2118C214.64 92.5607 206.873 86.2267 204.865 81.3527C202.131 74.7375 205.923 68.2018 203.994 61.418C202.616 56.5646 197.274 53.4188 195.088 53.7515C194.825 53.7893 194.554 53.8548 194.293 53.929C194.129 53.9355 193.974 53.9507 193.811 53.9754C191.571 54.3103 189.159 55.8197 186.823 58.3477C184.521 60.8197 182.429 64.1866 181.058 67.5887ZM193.017 91.5731C191.877 89.2555 190.696 86.8664 188.484 84.9105C187.653 84.1771 186.723 83.5114 185.822 82.872C183.391 81.1345 181.09 79.4831 180.416 76.5085C179.422 72.1143 182.614 64.0241 187.381 58.8639C189.595 56.4684 191.856 55.0471 193.914 54.7376C196.118 54.4041 197.838 56.3796 199.035 60.5742C199.861 63.4789 200.228 66.5205 200.572 69.4716C201.047 73.4029 201.527 77.4616 203.101 81.2856C203.676 82.6768 204.46 84.0324 205.223 85.3341C207.189 88.6955 209.039 91.8791 207.533 95.7701C207.061 96.9838 206.488 97.9643 205.85 98.6555C204.013 100.644 201.345 100.549 197.701 98.3574C195.388 96.3963 194.178 93.9446 193.017 91.5731Z" fill="#006156"/>
<path d="M272.969 34.951C272.762 35.2862 272.608 35.66 272.492 36.0597C271.77 38.5863 272.518 41.5641 274.529 44.2197C276.875 47.3135 280.433 49.3245 283.591 49.3245C283.926 49.3245 284.274 49.2988 284.596 49.2601C285.989 49.0667 287.097 48.3448 287.909 47.1073C289.521 44.6322 289.559 40.4168 288.786 37.6968C288.335 36.1241 287.007 34.6932 285.048 33.6748C283.269 32.7467 281.077 32.2181 279.028 32.2181C276.204 32.231 273.987 33.2236 272.969 34.951ZM288.038 37.9031C288.67 40.0817 288.838 44.2455 287.252 46.6819C286.569 47.726 285.641 48.3319 284.48 48.4866C284.184 48.5253 283.887 48.5511 283.578 48.5511C280.652 48.5511 277.326 46.669 275.134 43.7556C273.278 41.2934 272.582 38.5605 273.227 36.2659C273.317 35.9308 273.459 35.6214 273.626 35.3378C274.516 33.8424 276.475 32.9916 279.028 32.9916C282.689 33.0045 287.175 34.8737 288.038 37.9031Z" fill="#006156"/>
<path d="M229.787 33.851C229.899 33.4739 229.952 33.0727 229.961 32.6567C230.004 30.0293 228.511 27.3465 225.881 25.3019C222.814 22.9207 218.857 21.8991 215.806 22.7165C215.483 22.8032 215.153 22.9182 214.852 23.039C213.557 23.5861 212.673 24.5703 212.209 25.9759C211.293 28.7837 212.347 32.8654 213.798 35.2926C214.641 36.6949 216.294 37.7334 218.45 38.21C220.408 38.6461 222.662 38.5894 224.642 38.0589C227.365 37.3158 229.25 35.7831 229.787 33.851ZM214.467 34.8998C213.293 32.959 212.053 28.9804 212.954 26.2167C213.344 25.0312 214.084 24.2058 215.164 23.7561C215.441 23.642 215.72 23.5403 216.019 23.4603C218.846 22.7029 222.545 23.66 225.416 25.9069C227.846 27.8048 229.226 30.2644 229.198 32.6476C229.197 32.9947 229.14 33.3303 229.052 33.6476C228.58 35.3222 226.907 36.6512 224.442 37.3118C220.902 38.2469 216.085 37.6025 214.467 34.8998Z" fill="#006156"/>
<path d="M218.394 53.9357C218.71 54.483 219.351 55.1098 220.589 54.9789C221.748 54.8575 223.458 54.0281 224.249 53.2067C225.39 52.0246 225.121 49.6624 224.205 48.0753C223.552 46.9442 222.634 46.282 221.686 46.2823C221.502 46.2792 221.31 46.3049 221.119 46.3541C220.12 46.6028 219.193 47.5881 218.572 49.041C217.94 50.5371 217.641 52.6313 218.394 53.9357ZM221.273 46.9583C221.413 46.9263 221.549 46.9087 221.681 46.9055C222.403 46.9141 223.115 47.4517 223.658 48.3913C224.669 50.1426 224.512 52.0206 223.793 52.7763C223.118 53.4822 221.527 54.2431 220.519 54.3508C219.796 54.4272 219.268 54.1852 218.941 53.6197C218.388 52.6619 218.479 50.8822 219.157 49.2749C219.691 48.0301 220.479 47.1617 221.273 46.9583Z" fill="#006156"/>
<path d="M194.231 10.6301C197.66 10.1789 201.243 5.24168 202.623 3.14044C203.267 2.14783 203.86 1.15522 204.389 0.162613L203.512 0.162613C203.048 1.01342 202.532 1.87712 201.978 2.71504C199.219 6.90462 196.293 9.58596 194.127 9.86956C192.387 10.1016 191.15 8.72226 190.453 5.77021C190.067 4.14594 190.26 2.16072 190.673 0.162612L189.886 0.162612C189.474 2.19939 189.306 4.23618 189.706 5.95069C190.247 8.28397 191.485 10.9911 194.231 10.6301Z" fill="#006156"/>
<path d="M184.938 40.4198C187.052 40.4714 189.153 39.5819 191.396 37.7127C194.902 34.7735 196.926 30.4937 198.886 26.3686C199.002 26.1108 199.118 25.8658 199.247 25.6209C203.527 16.6101 207.574 9.28798 213.427 2.86824C213.685 2.58464 213.968 2.26236 214.291 1.91431C214.755 1.39867 215.283 0.805675 215.863 0.174015L214.819 0.174015C214.419 0.612312 214.059 1.02483 213.723 1.39867C213.414 1.74672 213.117 2.069 212.873 2.3526C206.956 8.84968 202.882 16.2234 198.564 25.2986C198.447 25.5436 198.331 25.8014 198.203 26.0592C196.282 30.1199 194.297 34.3095 190.919 37.1455C188.831 38.8858 186.884 39.7237 184.976 39.6721C182.476 39.6206 180.361 38.9631 178.866 37.7772C177.242 36.488 176.43 34.6704 176.481 32.3629C176.559 28.2765 178.376 24.5767 180.142 20.993C181.895 17.4222 183.7 13.7483 183.894 9.58447C184.048 6.06521 183.584 2.81667 182.579 0.174012L181.754 0.174012C182.785 2.75222 183.275 6.00076 183.12 9.54579C182.94 13.542 181.161 17.1515 179.446 20.645C177.654 24.2931 175.798 28.0702 175.708 32.3371C175.592 37.1842 179.137 40.2909 184.938 40.4198Z" fill="#006156"/>
</g>
</svg>
