<svg width="12" height="14" viewBox="0 0 12 14" fill="none" xmlns="http://www.w3.org/2000/svg">
<path fill-rule="evenodd" clip-rule="evenodd" d="M0 10.2466V5.17126H12V10.2873C12 12.3799 10.6828 13.6666 8.57519 13.6666H3.41822C1.33041 13.6666 0 12.3533 0 10.2466ZM3.30626 8.60662C3.00329 8.62062 2.75302 8.37996 2.73985 8.07396C2.73985 7.76729 2.97695 7.51396 3.27991 7.49996C3.57629 7.49996 3.81998 7.73396 3.82656 8.03329C3.83974 8.34062 3.60263 8.59396 3.30626 8.60662ZM6.01318 8.60662C5.71021 8.62062 5.45994 8.37996 5.44676 8.07396C5.44676 7.76729 5.68387 7.51396 5.98683 7.49996C6.28321 7.49996 6.5269 7.73396 6.53348 8.03329C6.54665 8.34062 6.30955 8.59396 6.01318 8.60662ZM8.70033 11.0599C8.39737 11.0533 8.15368 10.7999 8.15368 10.4933C8.14709 10.1866 8.39078 9.93392 8.69374 9.92725H8.70033C9.00988 9.92725 9.26015 10.1806 9.26015 10.4933C9.26015 10.8066 9.00988 11.0599 8.70033 11.0599ZM5.44676 10.4932C5.45994 10.7999 5.71021 11.0406 6.01318 11.0266C6.30955 11.0139 6.54665 10.7606 6.53348 10.4539C6.5269 10.1539 6.28321 9.91992 5.98683 9.91992C5.68387 9.93392 5.44676 10.1866 5.44676 10.4932ZM2.73326 10.4932C2.74643 10.7999 2.99671 11.0406 3.29967 11.0266C3.59605 11.0139 3.83315 10.7606 3.81998 10.4539C3.81339 10.1539 3.56971 9.91992 3.27333 9.91992C2.97036 9.93392 2.73326 10.1866 2.73326 10.4932ZM8.16026 8.0673C8.16026 7.76063 8.39736 7.51396 8.70033 7.5073C8.99671 7.5073 9.23381 7.74663 9.24698 8.04063C9.25357 8.3473 9.01646 8.60063 8.72009 8.60663C8.41712 8.6133 8.16685 8.37996 8.16026 8.07396V8.0673Z" fill="#006156"/>
<path d="M0.00195312 5.1712C0.0105151 4.77987 0.043446 4.0032 0.105356 3.7532C0.421492 2.3472 1.49504 1.45387 3.02961 1.32654H8.97034C10.4917 1.46054 11.5785 2.35987 11.8946 3.7532C11.9558 3.99654 11.9888 4.7792 11.9973 5.1712H0.00195312Z" fill="#97D3CA"/>
<path d="M3.53643 3.39331C3.82622 3.39331 4.04357 3.17398 4.04357 2.87998V0.847313C4.04357 0.553313 3.82622 0.333313 3.53643 0.333313C3.24664 0.333313 3.0293 0.553313 3.0293 0.847313V2.87998C3.0293 3.17398 3.24664 3.39331 3.53643 3.39331" fill="#006156"/>
<path d="M8.46319 3.39331C8.7464 3.39331 8.97033 3.17398 8.97033 2.87998V0.847313C8.97033 0.553313 8.7464 0.333313 8.46319 0.333313C8.1734 0.333313 7.95605 0.553313 7.95605 0.847313V2.87998C7.95605 3.17398 8.1734 3.39331 8.46319 3.39331" fill="#006156"/>
</svg>
